<svg xmlns="http://www.w3.org/2000/svg" width="178.526" height="97.892" viewBox="0 0 178.526 97.892"><defs><style>.a,.b{fill:#fff;}.b{font-size:23px;font-family:NHaasGroteskDSPro-35XLt, Neue Haas Grotesk Display Pro;letter-spacing:0.025em;}</style></defs><g transform="translate(2783.263 -1721)"><g transform="translate(-2783.263 1721)"><path class="a" d="M50.033,86.072a42.834,42.834,0,0,0,0,7.272c.28,2.937,4.081,2.886,4.081,2.886H97.341c2.861,0,2.975-3.217,2.975-3.217s.191-5.187,0-6.789a3.916,3.916,0,0,0-1.271-2.2,2.632,2.632,0,0,0-1.805-.725H53.224a3.255,3.255,0,0,0-3.191,2.772Z" transform="translate(-49.766 -83.3)"/><path class="a" d="M52.6,104H92.839s2.9-.165,3.039,3.458,0,6.573,0,6.573-.216,3.1-3.051,3.1H52.8c-.826,0-3.013-1.5-3.013-3.115v-7.476S50.248,104,52.6,104Z" transform="translate(-49.79 -77.683)"/><path class="a" d="M52.348,125.06H97s2.848.267,2.848,2.683v7.514s-.407,2.543-2.428,2.543H52.564s-2.708-.369-2.733-2.861.089-7.349.089-7.349S50.225,124.984,52.348,125.06Z" transform="translate(-49.78 -71.968)"/><path class="a" d="M125.218,85.989v7.628s-.47,2.352-2.352,2.657c0,0-14.621,2.288-15.155,20,0,0-.6,16.693,14.735,20.126a3.814,3.814,0,0,1,2.772,3.738v6.8a3.166,3.166,0,0,1-4.094,2.67s-26.533-3.967-26.394-33.335c0,0-.915-27.462,26.839-32.941h.2C122.345,83.281,125.218,83.433,125.218,85.989Z" transform="translate(-37.595 -83.293)"/><path class="a" d="M127.234,83.45S123,82.268,123,86.73s.1,7.031.1,7.031.2,2.187,3.814,2.873a19.9,19.9,0,0,1,10.171,7.412s1.6,2.034,3.433,2.021h7.908a2.009,2.009,0,0,0,2.187-2.047,7.628,7.628,0,0,0-.75-3.814S143.189,85.942,127.234,83.45Z" transform="translate(-29.923 -83.298)"/><path class="a" d="M154.818,107.992c0-1.653-1.818-2.543-2.543-2.746a3.5,3.5,0,0,0-.737-.076H121.991s-3.128.343-3.217,3-.064,7.132-.064,7.132.42,2.543,3.814,2.543h18s-1.754,9.929-14.277,13.032c0,0-2.034.267-2.1,3.5s0,7.005,0,7.005a3.331,3.331,0,0,0,3.484,2.339A31.861,31.861,0,0,0,152.021,125.3S154.818,120.515,154.818,107.992Z" transform="translate(-31.088 -77.365)"/><path class="a" d="M157.478,83.31h8.06a3.344,3.344,0,0,1,2.238,3.42v59.615s-.369,2.619-2.632,2.619h-7.628s-2.746-.165-2.746-2.733v-60.1S155.062,83.31,157.478,83.31Z" transform="translate(-21.302 -83.297)"/><path class="a" d="M172.3,124.9h21.423s2.161.547,2.161,2.161v8.366s-.445,2.276-2.276,2.276H172s-2.708-.165-2.708-2.708V127.57a2.9,2.9,0,0,1,3.013-2.67Z" transform="translate(-17.361 -72.012)"/></g><text class="b" transform="translate(-2783.263 1813.892)"><tspan x="0" y="0">Media</tspan></text></g></svg>